<svg xmlns="http://www.w3.org/2000/svg" fill="none" viewBox="0 0 500 500" id="1k-Plus--Streamline-Outlined-Material" height="500" width="500"><desc>1k Plus Streamline Icon: https://streamlinehq.com</desc><path fill="#000000" d="M352.08333333333326 291.66666666666663h20.833333333333332v-32.8125H406.25V241.66666666666666h-33.333333333333336V208.33333333333331h-20.833333333333332v33.333333333333336h-32.8125v17.187499999999996h32.8125V291.66666666666663Zm-125 20.833333333333332h26.041666666666664v-46.875l43.75 46.875h34.37499999999999l-58.33333333333333 -62.5 58.33333333333333 -62.5h-34.37499999999999l-43.75 46.875V187.5h-26.041666666666664v125Zm-72.91666666666666 0h26.041666666666664V187.5h-58.854166666666664v26.041666666666664h32.8125V312.5ZM93.75 437.5c-8.333333333333334 0 -15.625 -3.1249999999999996 -21.875 -9.375 -6.249999999999999 -6.249999999999999 -9.375 -13.541666666666666 -9.375 -21.875V93.75c0 -8.333333333333334 3.1249999999999996 -15.625 9.375 -21.875C78.125 65.625 85.41666666666666 62.5 93.75 62.5h312.5c8.333333333333334 0 15.625 3.1249999999999996 21.875 9.375 6.249999999999999 6.249999999999999 9.375 13.541666666666666 9.375 21.875v312.5c0 8.333333333333334 -3.1249999999999996 15.625 -9.375 21.875 -6.249999999999999 6.249999999999999 -13.541666666666666 9.375 -21.875 9.375H93.75Zm0 -31.25h312.5V93.75H93.75v312.5Z" stroke-width="10.4167"></path></svg>